<svg width="48" height="48" viewBox="0 0 48 48" fill="none" xmlns="http://www.w3.org/2000/svg">
<path d="M15.9219 23.4648C15.9219 23.1992 15.9609 22.9609 16.0391 22.75C16.1172 22.5312 16.2617 22.3281 16.4727 22.1406C16.6836 21.9531 16.9883 21.7656 17.3867 21.5781C17.7773 21.3828 18.293 21.1797 18.9336 20.9688C19.6836 20.7188 20.4062 20.4375 21.1016 20.125C21.7969 19.8047 22.418 19.4336 22.9648 19.0117C23.5117 18.582 23.9453 18.082 24.2656 17.5117C24.5859 16.9336 24.7461 16.2617 24.7461 15.4961C24.7461 14.7617 24.582 14.1016 24.2539 13.5156C23.9258 12.9219 23.4688 12.418 22.8828 12.0039C22.2891 11.582 21.5938 11.2617 20.7969 11.043C20 10.8164 19.1289 10.7031 18.1836 10.7031C16.9336 10.7031 15.832 10.9219 14.8789 11.3594C13.918 11.7891 13.168 12.4023 12.6289 13.1992C12.082 13.9883 11.8086 14.9219 11.8086 16H15.8984C15.8984 15.5703 15.9883 15.1914 16.168 14.8633C16.3398 14.5352 16.6016 14.2773 16.9531 14.0898C17.3047 13.9023 17.7461 13.8086 18.2773 13.8086C18.793 13.8086 19.2266 13.8867 19.5781 14.043C19.9297 14.1992 20.1953 14.4102 20.375 14.6758C20.5547 14.9336 20.6445 15.2188 20.6445 15.5312C20.6445 15.7891 20.5742 16.0234 20.4336 16.2344C20.2852 16.4375 20.0781 16.6289 19.8125 16.8086C19.5391 16.9883 19.2109 17.1602 18.8281 17.3242C18.4375 17.4883 18 17.6484 17.5156 17.8047C16.6094 18.0938 15.8047 18.418 15.1016 18.7773C14.3906 19.1289 13.793 19.5312 13.3086 19.9844C12.8164 20.4297 12.4453 20.9375 12.1953 21.5078C11.9375 22.0781 11.8086 22.7227 11.8086 23.4414C11.8086 24.207 11.957 24.8867 12.2539 25.4805C12.5508 26.0742 12.9766 26.5781 13.5312 26.9922C14.0859 27.3984 14.75 27.707 15.5234 27.918C16.2969 28.1289 17.1602 28.2344 18.1133 28.2344C18.9883 28.2344 19.8516 28.125 20.7031 27.9062C21.5469 27.6797 22.3125 27.3359 23 26.875C23.6875 26.4062 24.2383 25.8086 24.6523 25.082C25.0586 24.3477 25.2617 23.4766 25.2617 22.4688H21.1367C21.1367 22.9688 21.0703 23.3906 20.9375 23.7344C20.8047 24.0781 20.6094 24.3555 20.3516 24.5664C20.0938 24.7695 19.7773 24.918 19.4023 25.0117C19.0273 25.0977 18.5977 25.1406 18.1133 25.1406C17.5898 25.1406 17.168 25.0664 16.8477 24.918C16.5273 24.7617 16.293 24.5586 16.1445 24.3086C15.9961 24.0508 15.9219 23.7695 15.9219 23.4648Z" fill="#CECEF5"/>
<path d="M38.0625 37.1836V33.832L26.1914 30.0234L38.0625 26.2148V22.8633L21 28.6641V31.3828L38.0625 37.1836ZM38.0625 39.2227V35.7539L24.9844 35.1094H21V39.2227H38.0625ZM38.0625 24.293V20.8125H21V24.9375H24.9844L38.0625 24.293Z" fill="#C0C0ED"/>
</svg>
