<svg width="65" height="65" viewBox="0 0 65 65" fill="none" xmlns="http://www.w3.org/2000/svg">
<path d="M21.6328 30.1973C21.6328 29.7988 21.6914 29.4414 21.8086 29.125C21.9258 28.7969 22.1426 28.4922 22.459 28.2109C22.7754 27.9297 23.2324 27.6484 23.8301 27.3672C24.416 27.0742 25.1895 26.7695 26.1504 26.4531C27.2754 26.0781 28.3594 25.6562 29.4023 25.1875C30.4453 24.707 31.377 24.1504 32.1973 23.5176C33.0176 22.873 33.668 22.123 34.1484 21.2676C34.6289 20.4004 34.8691 19.3926 34.8691 18.2441C34.8691 17.1426 34.623 16.1523 34.1309 15.2734C33.6387 14.3828 32.9531 13.627 32.0742 13.0059C31.1836 12.373 30.1406 11.8926 28.9453 11.5645C27.75 11.2246 26.4434 11.0547 25.0254 11.0547C23.1504 11.0547 21.498 11.3828 20.0684 12.0391C18.627 12.6836 17.502 13.6035 16.6934 14.7988C15.873 15.9824 15.4629 17.3828 15.4629 19H21.5977C21.5977 18.3555 21.7324 17.7871 22.002 17.2949C22.2598 16.8027 22.6523 16.416 23.1797 16.1348C23.707 15.8535 24.3691 15.7129 25.166 15.7129C25.9395 15.7129 26.5898 15.8301 27.1172 16.0645C27.6445 16.2988 28.043 16.6152 28.3125 17.0137C28.582 17.4004 28.7168 17.8281 28.7168 18.2969C28.7168 18.6836 28.6113 19.0352 28.4004 19.3516C28.1777 19.6562 27.8672 19.9434 27.4688 20.2129C27.0586 20.4824 26.5664 20.7402 25.9922 20.9863C25.4062 21.2324 24.75 21.4727 24.0234 21.707C22.6641 22.1406 21.457 22.627 20.4023 23.166C19.3359 23.6934 18.4395 24.2969 17.7129 24.9766C16.9746 25.6445 16.418 26.4062 16.043 27.2617C15.6562 28.1172 15.4629 29.084 15.4629 30.1621C15.4629 31.3105 15.6855 32.3301 16.1309 33.2207C16.5762 34.1113 17.2148 34.8672 18.0469 35.4883C18.8789 36.0977 19.875 36.5605 21.0352 36.877C22.1953 37.1934 23.4902 37.3516 24.9199 37.3516C26.2324 37.3516 27.5273 37.1875 28.8047 36.8594C30.0703 36.5195 31.2188 36.0039 32.25 35.3125C33.2812 34.6094 34.1074 33.7129 34.7285 32.623C35.3379 31.5215 35.6426 30.2148 35.6426 28.7031H29.4551C29.4551 29.4531 29.3555 30.0859 29.1562 30.6016C28.957 31.1172 28.6641 31.5332 28.2773 31.8496C27.8906 32.1543 27.416 32.377 26.8535 32.5176C26.291 32.6465 25.6465 32.7109 24.9199 32.7109C24.1348 32.7109 23.502 32.5996 23.0215 32.377C22.541 32.1426 22.1895 31.8379 21.9668 31.4629C21.7441 31.0762 21.6328 30.6543 21.6328 30.1973Z" fill="#3636AD"/>
<path d="M54.5938 51.7754V46.748L36.7871 41.0352L54.5938 35.3223V30.2949L29 38.9961V43.0742L54.5938 51.7754ZM54.5938 54.834V49.6309L34.9766 48.6641H29V54.834H54.5938ZM54.5938 32.4395V27.2188H29V33.4062H34.9766L54.5938 32.4395Z" fill="#1A1A65"/>
</svg>
