<svg width="537" height="543" viewBox="0 0 537 543" fill="none" xmlns="http://www.w3.org/2000/svg">
<path d="M86.3466 1.01001L198.513 114.376M86.3466 1.01001L532.299 8.46813M86.3466 1.01001L1.91548 157.28L198.513 114.376M535.01 454.475L422.844 341.109M535.01 454.475L532.299 8.46813M535.01 454.475L380.924 540.344L422.844 341.109M310.679 227.742L532.299 8.46813M310.679 227.742L198.513 114.376M310.679 227.742L422.844 341.109M310.679 227.742L39.6234 366.853L190.232 122.569M310.679 227.742L164.594 493.16L422.844 341.109M532.299 8.46813L198.513 114.376M532.299 8.46813L422.844 341.109" stroke="#4E8BDA" stroke-width="2"/>
</svg>
